<?xml version="1.0" encoding="UTF-8"?><svg id="Layer_1" xmlns="http://www.w3.org/2000/svg" width="445.2" height="578.37" viewBox="0 0 445.2 578.37"><ellipse cx="221.91" cy="289.91" rx="205.69" ry="263.87" fill="#fff" stroke="#5f2d36" stroke-miterlimit="10" stroke-width="9.88"/><ellipse cx="221.91" cy="287.62" rx="139.88" ry="197.23" fill="none" stroke="#5f2d36" stroke-miterlimit="10" stroke-width="10.36"/><text transform="translate(53.23 410.15) rotate(62.43)" fill="#231f20" font-family="Arial-BoldMT, Arial" font-size="46" font-weight="700"><tspan x="0" y="0">C</tspan></text><text transform="translate(69.04 440.57) rotate(54.31)" fill="#231f20" font-family="Arial-BoldMT, Arial" font-size="46" font-weight="700"><tspan x="0" y="0">O</tspan></text><text transform="translate(90.88 470.41) rotate(45.82)" fill="#231f20" font-family="Arial-BoldMT, Arial" font-size="46" font-weight="700"><tspan x="0" y="0">L</tspan></text><text transform="translate(111.6 492.06) rotate(36.07)" fill="#231f20" font-family="Arial-BoldMT, Arial" font-size="46" font-weight="700"><tspan x="0" y="0">O</tspan></text><text transform="translate(143.65 515.17) rotate(22.72)" fill="#231f20" font-family="Arial-BoldMT, Arial" font-size="46" font-weight="700"><tspan x="0" y="0">M</tspan></text><text transform="translate(183.15 530.85) rotate(8.31)" fill="#231f20" font-family="Arial-BoldMT, Arial" font-size="46" font-weight="700"><tspan x="0" y="0">B</tspan></text><text transform="translate(220.19 535.89) rotate(-5.97)" fill="#231f20" font-family="Arial-BoldMT, Arial" font-size="46" font-weight="700"><tspan x="0" y="0">O</tspan></text><text transform="translate(257.31 530.89) rotate(-15.54)" fill="#231f20" font-family="Arial-BoldMT, Arial" font-size="46" font-weight="700"><tspan x="0" y="0"> </tspan></text><text transform="translate(268.79 527.73) rotate(-19.82)" fill="#231f20" font-family="Arial-BoldMT, Arial" font-size="46" font-weight="700"><tspan x="0" y="0">I</tspan></text><text transform="translate(282.14 523.6) rotate(-28.12)" fill="#231f20" font-family="Arial-BoldMT, Arial" font-size="46" font-weight="700"><tspan x="0" y="0">N</tspan></text><text transform="translate(313.8 506.41) rotate(-39.8)" fill="#231f20" font-family="Arial-BoldMT, Arial" font-size="46" font-weight="700"><tspan x="0" y="0">G</tspan></text><text transform="translate(342.19 482.11) rotate(-49.07)" fill="#231f20" font-family="Arial-BoldMT, Arial" font-size="46" font-weight="700"><tspan x="0" y="0">L</tspan></text><text transform="translate(361.06 460.36) rotate(-56.49)" fill="#231f20" font-family="Arial-BoldMT, Arial" font-size="46" font-weight="700"><tspan x="0" y="0">É</tspan></text><text transform="translate(378.19 434.38) rotate(-63.45)" fill="#231f20" font-family="Arial-BoldMT, Arial" font-size="46" font-weight="700"><tspan x="0" y="0">S</tspan></text><path d="M265.59,457.55s-.09,0-.09,0c-.07,0-.05,0-.06,0-.02,0-68.14,0-87.21,0,14.51-22.92,29.03-45.85,43.54-68.77,0,0,.02,0,.03,0,14.6,22.93,29.19,45.85,43.79,68.78Z" fill="#5f2d36"/><path d="M249.49,443.01s-.05,0-.06,0c-.04,0-.03,0-.04,0-.01,0-43.02,0-55.06,0,9.16-14.47,18.33-28.95,27.49-43.42,0,0,.01,0,.02,0,9.22,14.47,18.43,28.95,27.65,43.42Z" fill="#fff"/><path d="M227.28,454.56s-.01,0-.01,0c0,0,0,0,0,0,0,0-8.38,0-10.73,0,1.79-2.82,3.57-5.64,5.36-8.46,0,0,0,0,0,0,1.8,2.82,3.59,5.64,5.39,8.46Z" fill="#fff"/><path d="M227.28,456.52s-.01,0-.01,0c0,0,0,0,0,0,0,0-8.38,0-10.73,0,1.79,2.82,3.57,5.64,5.36,8.46,0,0,0,0,0,0,1.8-2.82,3.59-5.64,5.39-8.46Z" fill="#5f2d36"/><path d="M100.94,243.01s0,.09,0,.09c0,.07,0,.06,0,.06,0,.02,0,71.8,0,91.9,21.75-15.29,43.51-30.59,65.26-45.88,0,0,0-.02,0-.03-21.76-15.38-43.51-30.76-65.27-46.15Z" fill="#5f2d36"/><path d="M114.74,259.98s0,.06,0,.06c0,.05,0,.04,0,.04,0,.01,0,45.33,0,58.02,13.73-9.66,27.47-19.31,41.2-28.97,0,0,0-.01,0-.02-13.74-9.71-27.47-19.42-41.21-29.13Z" fill="#fff"/><path d="M103.78,283.38s0,.01,0,.01c0,0,0,0,0,0,0,0,0,8.83,0,11.3,2.68-1.88,5.35-3.76,8.03-5.64,0,0,0,0,0,0-2.68-1.89-5.35-3.78-8.03-5.68Z" fill="#fff"/><path d="M101.92,283.38s0,.01,0,.01c0,0,0,0,0,0,0,0,0,8.83,0,11.3-2.68-1.88-5.35-3.76-8.03-5.64,0,0,0,0,0,0,2.68-1.89,5.35-3.78,8.03-5.68Z" fill="#5f2d36"/><path d="M342.81,243.01s0,.09,0,.09c0,.07,0,.06,0,.06,0,.02,0,71.8,0,91.9-21.75-15.29-43.51-30.59-65.26-45.88,0,0,0-.02,0-.03,21.76-15.38,43.51-30.76,65.27-46.15Z" fill="#5f2d36"/><path d="M329.02,259.98s0,.06,0,.06c0,.05,0,.04,0,.04,0,.01,0,45.33,0,58.02-13.73-9.66-27.47-19.31-41.2-28.97,0,0,0-.01,0-.02,13.74-9.71,27.47-19.42,41.21-29.13Z" fill="#fff"/><path d="M339.97,283.38s0,.01,0,.01c0,0,0,0,0,0,0,0,0,8.83,0,11.3-2.68-1.88-5.35-3.76-8.03-5.64,0,0,0,0,0,0,2.68-1.89,5.35-3.78,8.03-5.68Z" fill="#fff"/><path d="M341.84,283.38s0,.01,0,.01c0,0,0,0,0,0,0,0,0,8.83,0,11.3,2.68-1.88,5.35-3.76,8.03-5.64,0,0,0,0,0,0-2.68-1.89-5.35-3.78-8.03-5.68Z" fill="#5f2d36"/><path d="M265.59,120.75s-.09,0-.09,0c-.07,0-.05,0-.06,0-.02,0-68.14,0-87.21,0,14.51,22.92,29.03,45.85,43.54,68.77,0,0,.02,0,.03,0,14.6-22.93,29.19-45.85,43.79-68.78Z" fill="#5f2d36"/><path d="M249.49,135.29s-.05,0-.06,0c-.04,0-.03,0-.04,0-.01,0-43.02,0-55.06,0,9.16,14.47,18.33,28.95,27.49,43.42,0,0,.01,0,.02,0,9.22-14.47,18.43-28.95,27.65-43.42Z" fill="#fff"/><path d="M227.28,123.74s-.01,0-.01,0c0,0,0,0,0,0,0,0-8.38,0-10.73,0,1.79,2.82,3.57,5.64,5.36,8.46,0,0,0,0,0,0,1.8-2.82,3.59-5.64,5.39-8.46Z" fill="#fff"/><path d="M227.28,121.78s-.01,0-.01,0c0,0,0,0,0,0,0,0-8.38,0-10.73,0,1.79-2.82,3.57-5.64,5.36-8.46,0,0,0,0,0,0,1.8,2.82,3.59,5.64,5.39,8.46Z" fill="#5f2d36"/><ellipse cx="221.91" cy="289.04" rx="88.81" ry="135.54" fill="#22408b" stroke="#5f2d36" stroke-miterlimit="10" stroke-width="5.73"/><ellipse cx="221.91" cy="289.04" rx="88.81" ry="135.54" fill="#22408b" stroke="#5f2d36" stroke-miterlimit="10" stroke-width="5.73"/><path d="M224.27,422.51c-6.75-.16-30.58-1.7-51.54-23.19-16.92-17.35-22.72-38.23-24.63-46.62h76.17v69.81Z" fill="#cd2028"/><path d="M136.22,289.03c31.22.17,62.45.34,93.67.51-.11-44.7-.21-89.4-.32-134.11-8.47-.42-27.12.06-45.82,13.3-18.71,13.25-27.01,31.96-33.06,45.36-13.36,29.61-14.88,58.15-14.48,74.93Z" fill="#fbd018"/><rect x="227.13" y="278.87" width="83.11" height="21.35" fill="#fff"/><rect x="227.13" y="282.13" width="83.11" height="14.82" fill="#cd2028"/><polygon points="284.15 379.19 220.09 295.57 229.65 285.49 293.72 369.11 284.15 379.19" fill="#fff"/><polygon points="286.06 377.18 221.99 293.56 227.74 287.5 291.81 371.12 286.06 377.18" fill="#cd2028"/><polygon points="232.51 294.93 298.43 213.32 289.09 202.95 223.18 284.56 232.51 294.93" fill="#fff"/><polygon points="230.65 292.86 296.57 211.25 290.96 205.02 225.04 286.63 230.65 292.86" fill="#cd2028"/><rect x="219.56" y="155.44" width="11.02" height="263.65" fill="#fff"/><rect x="216.38" y="155.44" width="11.02" height="263.65" fill="#cd2028"/><path d="M197.23,281.26c-.49-.22-.79-.23-.98-.19-.05,0-.15.03-.25-.02-.16-.08-.23-.29-.28-.46-.15-.49-.42-.6-.82-.51-.44.1-.69-.32-1-.57-.11.07-.21.12-.3.18-.48.32-.65.3-.93-.26-.37-.74-.77-1.41-1.52-1.69-.31-.12-.3-.52-.33-.85-.1-1.3-.22-1.38-1.3-.99-.41.15-.81.34-1.11.72-.65.83-.54,2.08.27,2.66,1.57,1.11,2.95,2.51,4.39,3.82,1.71,1.56,3.41,3.13,5.13,4.69.57.52,1.25.58,1.93.49.67-.09,1.24-.02,1.74.59.58.7,1.41.71,2.16.9.59.15,1.15.41,1.73.6.41.14.61.49.65,1,.05.68.06,1.36,0,2.03-.05.59-.21,1.13-.64,1.51-.32.29-.52.67-.63,1.14-.08.36-.17.76-.59.85-.25.06-.29.39-.25.56.29,1.26-.26,2.23-.78,3.19-.37.69-.74,1.38-1.14,2.06-.52.89-.64,2.66.33,3.47.59.5.65,1.16.61,1.92-.02.42,0,.84,0,1.26,0,.42-.13.79-.44.93-.54.25-.77.74-.97,1.32-.35,1.01-.3,1.48-.71,1.94-.09.1-.18.17-.23.21l-.21-.1c-.21.02-.41.03-.62-.04-1.17-.4-2.2-.99-2.4-2.61-.03-.26-.13-.44-.35-.56-.6-.33-1.17-.76-1.89-.57-.3.08-.58-.09-.83-.26-.23-.16-.44-.35-.66-.52l-.12-.17c-.32,1.2-.54,2.46-1.42,3.33-.78.77-1.04,1.8-1.08,2.94-.02.59-.06,1.1-.67,1.28-.24.07-.26.4-.32.67-.06.25,0,.62-.34.7-.13.05-.19-.08-.27-.15-.47-.47-.94-.57-1.49-.18-.53.38-1.1.52-1.7.53-.28,0-.48.12-.58.43-.54,1.74-1.06,3.48-1.63,5.2-.39,1.2.02,2.18.57,3.11.42.7.93,1.26,1.77,1.21.29-.02.62.22.9.42.31.22.26.64-.08.83-.13.07-.26.16-.39.16-.87,0-1.21.72-1.51,1.49-.28.72-.65.96-1.31.87-.6-.08-1.14-.36-1.68-.61-1.85-.87-3.68-1.81-5.69-2.12-.33-.05-.66-.24-.96-.47-.87-.66-1.82-1.05-2.88-.94v-.12c.01.17-.08.19-.2.2-.37.03-.74.11-1.11.11-.77,0-1.07.48-1.21,1.28-.15.88-.25,1.77-.31,2.66-.07,1.02-.54,1.74-1.29,2.24-1.06.71-.85,1.71-.48,2.68.18.47.51.86.66,1.37.11.37.13.62-.29.77-1.36.48-2.72.76-4.08.07-.69-.35-1.41-.25-2.12-.36-1.55-.24-2.2,1.22-3.07,2.23-.22.26-.1.75.03,1.11.21.57.44,1.13.61,1.73.19.69.23,1.35-.06,1.98-.16.34-.08.66.09.82.75.75.5,1.55.18,2.39-.16,0-.31-.04-.42-.2-.33-.46-.63-.24-.85.1-.3.47-.62.9-.77,1.5-.15.6-.04,1.1.21,1.53.32.56.55,1.05.24,1.73-.09.2-.03.56.33.55.32-.01.53.2.65.52.11.29.25.57.52.65.37.11.42.45.47.79.06.41.13.82.15,1.24.02.42.23.49.51.48.27-.01.54-.05.81-.09.38-.05.73-.08,1.06.29.28.31.63.31.96-.08.4-.48.84-.93,1.2-1.46.37-.54.86-.9,1.39-1.16.22-.11.46-.2.64.21.21.46.56.76,1.02.92.65.23.86.89.95,1.61.12.92.07,1.86.21,2.79.16,1.08.56,2.04,1.04,2.92.72,1.31.67,2.68.45,4.09-.11.73-.29,1.43-.23,2.18.03.41.13.79.25,1.17.19.62.47,1.2.62,1.84.09.39.37.72.72.88,2.07.9,4.1,1.91,6.23,2.59,1.2.38,2.43.5,3.67.64,1.36.15,2.68-.18,4.02-.18.7,0,1.38-.1,1.99.49.31.3.69.22,1.06-.03.62-.42,1.21-.91,1.88-1.26.31-.16.64-.22.94-.39l-.19.2c.23.17.12.44.09.65-.07.68-.09,1.36-.03,2.04.06.63.16.67.71.53.35-.09.49-.34.55-.68.13-.78.45-1.35,1.09-1.69.4-.21.78-.5,1.1-.84,1.44-1.5,2.68-3.22,3.88-4.98.52-.77.98-1.64,1.21-2.59.37-1.51.91-2.95,1.19-4.49.11-.62.36-.76.86-.64.31.08.62.21.94.25.84.11,1.61.04,2.18-.89,1.1-1.81,2.52-3.19,4.12-4.37,1.18-.87,2.26-1.92,2.88-3.43.68-1.67,1.48-3.25,2.32-4.8.56-1.03.98-2.16,1.59-3.16.89-1.47,1.96-2.77,3-4.09.56-.71.75-1.49.75-2.38,0-.84.11-1.68.28-2.48.36-1.65,1.09-3,2.42-3.88,1.27-.84,2.41-1.92,3.98-1.95.89-.02,1.29-.57,1.51-1.58.29-1.35.09-2.73.17-4.09.08-1.46,0-2.92.11-4.38.1-1.3.59-2.34,1.6-2.92.51-.29,1.08-.42,1.63-.62.4-.14.63-.4.76-.91.2-.77.16-1.58.4-2.33.78-2.39,1.68-4.66,3.3-6.48,1.49-1.68,2.85-3.5,3.51-5.88.32-1.13.84-2.17,1.18-3.29.22-.73.61-1.4,1.19-1.89.59-.49,1.15-1.02,1.78-1.44,1.17-.8,1.71-2.2,2.43-3.43.54-.93.88-1.96.95-3.05.11-1.67-.11-3.33-.33-4.98-.15-1.12-.32-2.29.21-3.3.87-1.68,1.63-3.44,2.47-5.14.63-1.27,1.44-2.42,1.75-3.89.09-.44.37-.87.87-.95.33-.05.56-.33.65-.72.09-.37.32-.6.61-.72.91-.37,1.35-1.21,1.72-2.17.63-1.62,1.3-3.22,2.44-4.46.28-.31.53-.65.79-.98.44-.55.93-1.03,1.4-1.54.8-.87,1.72-.7,2.62-.34.41.16.72.08,1-.25.97-1.12,1.63-2.39,1.62-4.07,0-.68.06-1.41.51-1.9.91-1,1.24-2.29,1.49-3.65.27-1.51.74-2.92,1.65-4.08,1.29-1.64,1.75-3.62,1.67-5.81-.08-2.31-.14-4.62-.12-6.93.01-1.91-.13-3.82-.09-5.73,0-.45.02-.88.12-1.34.21-.91.75-1.58,1.16-2.33,1.49-2.68,2.76-5.54,4.83-7.73.85-.9,1.61-1.96,2.91-1.95.3,0,.48-.24.52-.64.05-.53.02-1.04-.04-1.55-.07-.66-.24-.72-.75-.41-.34.21-.68.41-1.08.5-.68.17-.76.15-.97-.62-.31-1.12-.33-2.23-.02-3.35l-.23-.27c-.45,0-.85.23-1.23.45-.53.31-1.01.08-.99-.74.02-1.05-.12-1.26-.98-1.49-.55-.14-1.06-.51-1.66-.37l-.06-.11c-.04.5-.1,1.01-.13,1.51-.16,2.78-1.15,5.07-2.97,6.85-.73.71-1.37,1.53-2.1,2.23-.44.42-.92.76-1.4,1.1-.68.49-1.3,1.06-1.63,1.97-.25.67-.31,1.38-.37,2.08-.05.52-.2.75-.66.8-.95.1-1.53,1.13-1.3,2.23.11.53.19,1.06.34,1.58.34,1.18-.38,2.6-1.6,2.4-.35-.06-.59.15-.72.55-.32,1-.4,2.89.58,4.07.85,1.02.86.99.02,2.09-.52.68-1.13,1.22-1.79,1.72-.57.44-.59.46-.42,1.28l-.08.25c-.76.55-.86,1.54-1.13,2.4-.35,1.16-.87,2.14-1.88,2.66-.4.21-.63.62-.77,1.05-.36,1.15-1.05,1.84-2.03,2.2-.45.16-.88.4-1.33.56-.48.17-.96.33-1.47.12-.38-.15-.78-.04-1.1.24-.27.24-.57.22-.81.07-.74-.48-1.52-.54-2.34-.46-.44.04-.89-.06-1.34-.14-.49-.09-.63-.46-.38-1.02.24-.54.52-1.07.56-1.68.06-.82-.04-1.63-.19-2.43-.14-.77,0-1.04.66-1.33.09-.04.15-.16.24-.2.37-.14.45-.42.29-.82l-.06-.11c-.27-.09-.31-.35-.3-.62,0-.26,0-.53.04-.78.06-.41.03-.71-.42-.67-.1,0-.1-.09-.12-.17v.12c-.3.21-.63.06-.95.1-1.6.2-3.2.39-4.81.43-.18,0-.37.1-.59.17.1.68-.2,1.01-.71,1.31-.69.41-.74.69-.54,1.59.08.36.2.78-.04.99-.22.2-.57.02-.86-.11-.39-.18-.63-.53-.84-.93-.22-.41-.4-.87-.75-1.18-.17-.15-.33-.18-.52-.06-.62.37-1.11.82-1.15,1.74-.02.51-.04,1.05-.33,1.58-1.21-1.26-2.99-1.38-4.17-2.78-.3.22-.4.57-.56.87-.13.25-.3.29-.55.25-.58-.09-1.17-.12-1.83-.19-.33.28-.22.79-.22,1.24,0,1.21-.02,1.27-1.06,1.44-.3.05-.61.09-.9.16-.36.09-.63.27-.77.73-.23.76-.3.8-.83,1.25-.32-.21-.44-.7-.9-.78-.53-.09-1.03.02-1.53.09-.34.05-.48.42-.49.81,0,.16.03.32.03.47,0,.97-.2,1.26-1,1.43-.2.04-.4.09-.6.13-.57.1-.93.54-.81,1.17.24,1.27-.18,2.27-.83,3.2-.38.55-.72,1.13-1.04,1.73-.39.73-.58,1.5-.41,2.32.17.82.08,1.61-.07,2.4-.11.61-.03,1.17.24,1.71.27.56.25,1.12-.06,1.68-.45.82-1.09,1.43-1.68,2.09-.86.96-1.74,1.91-2.72,2.73-.37.32-.67.78-.95,1.26-.58,1.03-1.37,1.8-2.28,2.44-1.36.95-2.47,2.28-3.65,3.5-.66.68-.61,1.57-.62,2.47-.02,1.36-.1,2.67-.79,3.87-.52.92-1.26,1.08-2.07,1.1-.26,0-.52-.08-.78-.15-.44-.12-.85-.3-1-.9-.04-.16-.15-.3-.23-.45" fill="#fff" stroke="#000" stroke-linecap="round" stroke-linejoin="round" stroke-width="1.76"/><ellipse cx="221.91" cy="289.04" rx="88.81" ry="135.54" fill="none" stroke="#5f2d36" stroke-miterlimit="10" stroke-width="10.14"/><text transform="translate(69.65 329.29) rotate(-94.94)" fill="#010101" font-family="Arial-BoldMT, Arial" font-size="46" font-weight="700"><tspan x="0" y="0">C</tspan></text><text transform="translate(66.77 297.65) rotate(-88.48)" fill="#010101" font-family="Arial-BoldMT, Arial" font-size="46" font-weight="700"><tspan x="0" y="0">O</tspan></text><text transform="translate(67.8 263.28) rotate(-82.4)" fill="#010101" font-family="Arial-BoldMT, Arial" font-size="46" font-weight="700"><tspan x="0" y="0">L</tspan></text><text transform="translate(71.19 236.75) rotate(-76.58)" fill="#010101" font-family="Arial-BoldMT, Arial" font-size="46" font-weight="700"><tspan x="0" y="0">E</tspan></text><text transform="translate(77.7 208.3) rotate(-69.56)" fill="#010101" font-family="Arial-BoldMT, Arial" font-size="46" font-weight="700"><tspan x="0" y="0">G</tspan></text><text transform="translate(90.16 176.21) rotate(-64.07)" fill="#010101" font-family="Arial-BoldMT, Arial" font-size="46" font-weight="700"><tspan x="0" y="0">I</tspan></text><text transform="translate(94.54 165.63) rotate(-58.12)" fill="#010101" font-family="Arial-BoldMT, Arial" font-size="46" font-weight="700"><tspan x="0" y="0">O</tspan></text><text transform="translate(113.12 136.79) rotate(-51.57)" fill="#010101" font-family="Arial-BoldMT, Arial" font-size="46" font-weight="700"><tspan x="0" y="0"> </tspan></text><text transform="translate(119.58 127.48) rotate(-44.66)" fill="#010101" font-family="Arial-BoldMT, Arial" font-size="46" font-weight="700"><tspan x="0" y="0">B</tspan></text><text transform="translate(142.41 105.69) rotate(-36.92)" fill="#010101" font-family="Arial-BoldMT, Arial" font-size="46" font-weight="700"><tspan x="0" y="0">I</tspan></text><text transform="translate(150.99 98.45) rotate(-29.29)" fill="#010101" font-family="Arial-BoldMT, Arial" font-size="46" font-weight="700"><tspan x="0" y="0">L</tspan></text><text transform="translate(174.2 85.9) rotate(-20.92)" fill="#010101" font-family="Arial-BoldMT, Arial" font-size="46" font-weight="700"><tspan x="0" y="0">I</tspan></text><text transform="translate(184.04 80.98) rotate(-10.8)" fill="#010101" font-family="Arial-BoldMT, Arial" font-size="46" font-weight="700"><tspan x="0" y="0">N</tspan></text><text transform="translate(214.15 74.71) rotate(5.02)" fill="#010101" font-family="Arial-BoldMT, Arial" font-size="46" font-weight="700"><tspan x="0" y="0">G</tspan></text><text transform="translate(247.31 77.5) rotate(20.54)" fill="#010101" font-family="Arial-BoldMT, Arial" font-size="46" font-weight="700"><tspan x="0" y="0">Ü</tspan></text><text transform="translate(276.34 88.34) rotate(33.46)" fill="#010101" font-family="Arial-BoldMT, Arial" font-size="46" font-weight="700"><tspan x="0" y="0">E</tspan></text><text transform="translate(300.27 104.78) rotate(41.14)" fill="#010101" font-family="Arial-BoldMT, Arial" font-size="46" font-weight="700"><tspan x="0" y="0"> </tspan></text><text transform="translate(309.22 111.64) rotate(48.42)" fill="#010101" font-family="Arial-BoldMT, Arial" font-size="46" font-weight="700"><tspan x="0" y="0">N</tspan></text><text transform="translate(330.14 135.11) rotate(57.71)" fill="#010101" font-family="Arial-BoldMT, Arial" font-size="46" font-weight="700"><tspan x="0" y="0">A</tspan></text><text transform="translate(347.07 161.76) rotate(65.82)" fill="#010101" font-family="Arial-BoldMT, Arial" font-size="46" font-weight="700"><tspan x="0" y="0">C</tspan></text><text transform="translate(359.77 191.06) rotate(70.92)" fill="#010101" font-family="Arial-BoldMT, Arial" font-size="46" font-weight="700"><tspan x="0" y="0">I</tspan></text><text transform="translate(364.07 201.78) rotate(75.99)" fill="#010101" font-family="Arial-BoldMT, Arial" font-size="46" font-weight="700"><tspan x="0" y="0">O</tspan></text><text transform="translate(372.36 235.03) rotate(82.85)" fill="#010101" font-family="Arial-BoldMT, Arial" font-size="46" font-weight="700"><tspan x="0" y="0">N</tspan></text><text transform="translate(376.39 266.59) rotate(89.14)" fill="#010101" font-family="Arial-BoldMT, Arial" font-size="46" font-weight="700"><tspan x="0" y="0">A</tspan></text><text transform="translate(376.81 298.44) rotate(94.87)" fill="#010101" font-family="Arial-BoldMT, Arial" font-size="46" font-weight="700"><tspan x="0" y="0">L</tspan></text></svg>