<?xml version="1.0" encoding="UTF-8"?><svg id="Layer_1" xmlns="http://www.w3.org/2000/svg" width="1025.21" height="1060.78" xmlns:xlink="http://www.w3.org/1999/xlink" viewBox="0 0 1025.21 1060.78"><defs><linearGradient id="linear-gradient" x1="335.02" y1="626.16" x2="690.19" y2="626.16" gradientUnits="userSpaceOnUse"><stop offset="0" stop-color="#8e4399"/><stop offset="1" stop-color="#792a90"/></linearGradient><linearGradient id="linear-gradient-2" x1="229.41" y1="466.91" x2="584.59" y2="466.91" gradientUnits="userSpaceOnUse"><stop offset="0" stop-color="#15a06b"/><stop offset="1" stop-color="#008052"/></linearGradient><linearGradient id="_135" x1="440.63" y1="466.91" x2="795.8" y2="466.91" gradientUnits="userSpaceOnUse"><stop offset="0" stop-color="#f8ed33"/><stop offset="1" stop-color="#f26724"/></linearGradient><linearGradient id="linear-gradient-3" x1="512.61" y1="592.42" x2="512.61" y2="106.34" gradientUnits="userSpaceOnUse"><stop offset="0" stop-color="#cd2029"/><stop offset="1" stop-color="#5f2e36"/></linearGradient></defs><g opacity=".5"><path d="M512.61,803.75c-23.97,0-47.23-4.7-69.13-13.96-21.15-8.95-40.14-21.75-56.45-38.05s-29.11-35.3-38.05-56.45c-9.26-21.9-13.96-45.16-13.96-69.13s4.7-47.23,13.96-69.13c8.94-21.15,21.75-40.14,38.05-56.45s35.3-29.11,56.45-38.05c21.9-9.26,45.16-13.96,69.13-13.96s47.23,4.7,69.13,13.96c21.15,8.94,40.14,21.75,56.45,38.05s29.11,35.3,38.05,56.45c9.26,21.9,13.96,45.16,13.96,69.13s-4.7,47.23-13.96,69.13c-8.94,21.15-21.75,40.14-38.05,56.45s-35.3,29.11-56.45,38.05c-21.9,9.26-45.16,13.96-69.13,13.96ZM512.61,471.05c-85.53,0-155.11,69.58-155.11,155.11s69.58,155.11,155.11,155.11,155.11-69.58,155.11-155.11-69.58-155.11-155.11-155.11Z" fill="url(#linear-gradient)"/><path d="M407,644.5c-23.97,0-47.23-4.7-69.13-13.96-21.15-8.95-40.14-21.75-56.45-38.05-16.31-16.31-29.11-35.3-38.05-56.45-9.26-21.9-13.96-45.16-13.96-69.13s4.7-47.23,13.96-69.13c8.94-21.15,21.75-40.14,38.05-56.45,16.31-16.31,35.3-29.11,56.45-38.05,21.9-9.26,45.16-13.96,69.13-13.96s47.23,4.7,69.13,13.96c21.15,8.94,40.14,21.75,56.45,38.05,16.31,16.31,29.11,35.3,38.05,56.45,9.26,21.9,13.96,45.16,13.96,69.13s-4.7,47.23-13.96,69.13c-8.94,21.15-21.75,40.14-38.05,56.45s-35.3,29.11-56.45,38.05c-21.9,9.26-45.16,13.96-69.13,13.96ZM407,311.8c-85.53,0-155.11,69.58-155.11,155.11s69.58,155.11,155.11,155.11,155.11-69.58,155.11-155.11-69.58-155.11-155.11-155.11Z" fill="url(#linear-gradient-2)"/><path d="M618.21,644.5c-23.97,0-47.23-4.7-69.13-13.96-21.15-8.95-40.14-21.75-56.45-38.05-16.31-16.31-29.11-35.3-38.05-56.45-9.26-21.9-13.96-45.16-13.96-69.13s4.7-47.23,13.96-69.13c8.94-21.15,21.75-40.14,38.05-56.45,16.31-16.31,35.3-29.11,56.45-38.05,21.9-9.26,45.16-13.96,69.13-13.96s47.23,4.7,69.13,13.96c21.15,8.94,40.14,21.75,56.45,38.05s29.11,35.3,38.05,56.45c9.26,21.9,13.96,45.16,13.96,69.13s-4.7,47.23-13.96,69.13c-8.94,21.15-21.75,40.14-38.05,56.45-16.31,16.31-35.3,29.11-56.45,38.05-21.9,9.26-45.16,13.96-69.13,13.96ZM618.21,311.8c-85.53,0-155.11,69.58-155.11,155.11s69.58,155.11,155.11,155.11,155.11-69.58,155.11-155.11-69.58-155.11-155.11-155.11Z" fill="url(#_135)"/></g><path d="M577.37,876.87v-43.35c0-3.39-.11-6.74-.34-10.04h-128.87c-.22,3.3-.34,6.65-.34,10.04v43.35h129.54Z" fill="#214189"/><path d="M516.95,535.78v143.91c8.05,1.95,14.02,9.2,14.02,17.85,0,10.15-8.23,18.37-18.37,18.37s-18.37-8.23-18.37-18.37c0-8.65,5.98-15.9,14.02-17.85v-143.91c-27.55,54.2-55.11,108.4-82.66,162.59,5.18,15.09,10.16,32.37,14.14,51.65,4.83,23.36,7.17,44.72,8.15,63.26,21.57-.08,43.15-.17,64.72-.25,21.57.08,43.15.17,64.72.25.97-18.54,3.32-39.9,8.15-63.26,3.98-19.28,8.96-36.56,14.14-51.65-27.55-54.2-55.11-108.4-82.66-162.59Z" fill="#214189"/><path d="M665.57,373.55c-7.7-35.1-21.47-74.15-56.89-92.45,22.44,36.25,3.58,107.74-30.39,80.46-27.72-34.52,20.99-87.71,17.71-141.19-2.12-35.24-12.25-60.8-33.97-81.33-20.26-18.88-50.28-34.24-79.21-32.59,26.02,18.88,39.06,68.48,27.47,102.72-6.85,21.25-20.08,40.92-43,52.26-.49.29-.85.72-1.34,1.08-34.08,10.41-54.34-28.86-43.91-60.15-14.05,14.49-34.4,39.07-48.83,74.44-10.1,24.76-13.25,44.89-15.86,62.29-3.2,21.33-9.11,63.43,2.91,115.22,9.66,41.63,25.87,67.8,29.63,73.72,11.45,18.02,22.01,28.51,24.87,31.3,17.07,16.62,34.61,26.05,46.49,31.29-6.13-4.7-40.05-31.56-40.54-70.84-.2-16.1,5.26-30.59,7.37-36.03,5.59-14.4,14.14-26.83,25.2-38.98,21.23-23.11,38.88-29.5,65.62-38.04-12.25,13.64-19.83,50.75-5.4,70.42,10.13,12.85,39.85,15.72,41.73-13.92,26.08,17.11,41.09,45.98,38.69,75.3-2.52,30.77-23.19,49.65-28.12,53.92,7.64-1.21,13.79-3.18,18.24-4.9,12.84-4.98,21.3-11.54,25.84-15.14,33.48-26.62,50.25-71.19,50.25-71.19,9.89-26.29,11.1-48.21,11.75-62.27,1.38-29.54-3.38-51.91-6.33-65.37Z" fill="url(#linear-gradient-3)"/><text transform="translate(99.74 385.56) rotate(-68.04)" fill="#010101" font-family="RobotoCondensed-Bold, &apos;Roboto Condensed&apos;" font-size="102.03" font-weight="700"><tspan x="0" y="0">C</tspan></text><text transform="translate(120.44 333.56) rotate(-60.39)" fill="#010101" font-family="RobotoCondensed-Bold, &apos;Roboto Condensed&apos;" font-size="102.03" font-weight="700"><tspan x="0" y="0">O</tspan></text><text transform="translate(150.06 281.96) rotate(-53.38)" fill="#010101" font-family="RobotoCondensed-Bold, &apos;Roboto Condensed&apos;" font-size="102.03" font-weight="700"><tspan x="0" y="0">L</tspan></text><text transform="translate(175.62 246.47) rotate(-46.8)" fill="#010101" font-family="RobotoCondensed-Bold, &apos;Roboto Condensed&apos;" font-size="102.03" font-weight="700"><tspan x="0" y="0">O</tspan></text><text transform="translate(215.49 202.84) rotate(-38.02)" fill="#010101" font-family="RobotoCondensed-Bold, &apos;Roboto Condensed&apos;" font-size="102.03" font-weight="700"><tspan x="0" y="0">M</tspan></text><text transform="translate(274.8 157.17) rotate(-29.48)" fill="#010101" font-family="RobotoCondensed-Bold, &apos;Roboto Condensed&apos;" font-size="102.03" font-weight="700"><tspan x="0" y="0">B</tspan></text><text transform="translate(322.56 129.84) rotate(-21.89)" fill="#010101" font-family="RobotoCondensed-Bold, &apos;Roboto Condensed&apos;" font-size="102.03" font-weight="700"><tspan x="0" y="0">O</tspan></text><text transform="translate(378.47 108.26) rotate(-16.44)" fill="#010101" font-family="RobotoCondensed-Bold, &apos;Roboto Condensed&apos;" font-size="102.03" font-weight="700"><tspan x="0" y="0"> </tspan></text><text transform="translate(400.05 101.8) rotate(-13.17)" fill="#010101" font-family="RobotoCondensed-Bold, &apos;Roboto Condensed&apos;" font-size="102.03" font-weight="700"><tspan x="0" y="0">I</tspan></text><text transform="translate(425.1 94.96) rotate(-7.42)" fill="#010101" font-family="RobotoCondensed-Bold, &apos;Roboto Condensed&apos;" font-size="102.03" font-weight="700"><tspan x="0" y="0">N</tspan></text><text transform="translate(484.61 86.79) rotate(.93)" fill="#010101" font-family="RobotoCondensed-Bold, &apos;Roboto Condensed&apos;" font-size="102.03" font-weight="700"><tspan x="0" y="0">G</tspan></text><text transform="translate(542.46 87.59) rotate(7.1)" fill="#010101" font-family="RobotoCondensed-Bold, &apos;Roboto Condensed&apos;" font-size="102.03" font-weight="700"><tspan x="0" y="0">L</tspan></text><text transform="translate(589.09 93.26) rotate(13.41)" fill="#010101" font-family="RobotoCondensed-Bold, &apos;Roboto Condensed&apos;" font-size="102.03" font-weight="700"><tspan x="0" y="0">É</tspan></text><text transform="translate(635.93 104.15) rotate(20.14)" fill="#010101" font-family="RobotoCondensed-Bold, &apos;Roboto Condensed&apos;" font-size="102.03" font-weight="700"><tspan x="0" y="0">S</tspan></text><text transform="translate(686 123.18) rotate(25.17)" fill="#010101" font-family="RobotoCondensed-Bold, &apos;Roboto Condensed&apos;" font-size="102.03" font-weight="700"><tspan x="0" y="0"> </tspan></text><text transform="translate(706.27 131.88) rotate(30.18)" fill="#010101" font-family="RobotoCondensed-Bold, &apos;Roboto Condensed&apos;" font-size="102.03" font-weight="700"><tspan x="0" y="0">S</tspan></text><text transform="translate(752.22 158.33) rotate(37.37)" fill="#010101" font-family="RobotoCondensed-Bold, &apos;Roboto Condensed&apos;" font-size="102.03" font-weight="700"><tspan x="0" y="0">C</tspan></text><text transform="translate(796.86 192.06) rotate(45.01)" fill="#010101" font-family="RobotoCondensed-Bold, &apos;Roboto Condensed&apos;" font-size="102.03" font-weight="700"><tspan x="0" y="0">H</tspan></text><text transform="translate(839.62 234.65) rotate(52.86)" fill="#010101" font-family="RobotoCondensed-Bold, &apos;Roboto Condensed&apos;" font-size="102.03" font-weight="700"><tspan x="0" y="0">O</tspan></text><text transform="translate(875.55 281.83) rotate(60.68)" fill="#010101" font-family="RobotoCondensed-Bold, &apos;Roboto Condensed&apos;" font-size="102.03" font-weight="700"><tspan x="0" y="0">O</tspan></text><text transform="translate(904.45 333.83) rotate(67.73)" fill="#010101" font-family="RobotoCondensed-Bold, &apos;Roboto Condensed&apos;" font-size="102.03" font-weight="700"><tspan x="0" y="0">L</tspan></text><text transform="translate(26.5 685.57) rotate(68.44)" fill="#010101" font-family="RobotoCondensed-Bold, &apos;Roboto Condensed&apos;" font-size="102.03" font-weight="700"><tspan x="0" y="0">E</tspan></text><text transform="translate(46.86 737.2) rotate(61.51)" fill="#010101" font-family="RobotoCondensed-Bold, &apos;Roboto Condensed&apos;" font-size="102.03" font-weight="700"><tspan x="0" y="0">N</tspan></text><text transform="translate(79.84 796.99) rotate(54.05)" fill="#010101" font-family="RobotoCondensed-Bold, &apos;Roboto Condensed&apos;" font-size="102.03" font-weight="700"><tspan x="0" y="0">G</tspan></text><text transform="translate(118.38 849.09) rotate(47.45)" fill="#010101" font-family="RobotoCondensed-Bold, &apos;Roboto Condensed&apos;" font-size="102.03" font-weight="700"><tspan x="0" y="0">L</tspan></text><text transform="translate(154.24 887.31) rotate(42.81)" fill="#010101" font-family="RobotoCondensed-Bold, &apos;Roboto Condensed&apos;" font-size="102.03" font-weight="700"><tspan x="0" y="0">I</tspan></text><text transform="translate(177.07 909.04) rotate(37.78)" fill="#010101" font-family="RobotoCondensed-Bold, &apos;Roboto Condensed&apos;" font-size="102.03" font-weight="700"><tspan x="0" y="0">S</tspan></text><text transform="translate(225.13 946.16) rotate(30.59)" fill="#010101" font-family="RobotoCondensed-Bold, &apos;Roboto Condensed&apos;" font-size="102.03" font-weight="700"><tspan x="0" y="0">H</tspan></text><text transform="translate(283.07 979.15) rotate(25.31)" fill="#010101" font-family="RobotoCondensed-Bold, &apos;Roboto Condensed&apos;" font-size="102.03" font-weight="700"><tspan x="0" y="0"> </tspan></text><text transform="translate(307.54 991.29) rotate(20.47)" fill="#010101" font-family="RobotoCondensed-Bold, &apos;Roboto Condensed&apos;" font-size="102.03" font-weight="700"><tspan x="0" y="0">S</tspan></text><text transform="translate(364.28 1012.17) rotate(13.59)" fill="#010101" font-family="RobotoCondensed-Bold, &apos;Roboto Condensed&apos;" font-size="102.03" font-weight="700"><tspan x="0" y="0">K</tspan></text><text transform="translate(423.18 1025.55) rotate(8.43)" fill="#010101" font-family="RobotoCondensed-Bold, &apos;Roboto Condensed&apos;" font-size="102.03" font-weight="700"><tspan x="0" y="0">I</tspan></text><text transform="translate(454.05 1030.41) rotate(3.77)" fill="#010101" font-family="RobotoCondensed-Bold, &apos;Roboto Condensed&apos;" font-size="102.03" font-weight="700"><tspan x="0" y="0">L</tspan></text><text transform="translate(507.31 1033.68) rotate(-2.1)" fill="#010101" font-family="RobotoCondensed-Bold, &apos;Roboto Condensed&apos;" font-size="102.03" font-weight="700"><tspan x="0" y="0">L</tspan></text><text transform="translate(561.03 1031.62) rotate(-8.42)" fill="#010101" font-family="RobotoCondensed-Bold, &apos;Roboto Condensed&apos;" font-size="102.03" font-weight="700"><tspan x="0" y="0">S</tspan></text><text transform="translate(619.08 1022.2) rotate(-13.25)" fill="#010101" font-family="RobotoCondensed-Bold, &apos;Roboto Condensed&apos;" font-size="102.03" font-weight="700"><tspan x="0" y="0"> </tspan></text><text transform="translate(646.14 1016.54) rotate(-18.5)" fill="#010101" font-family="RobotoCondensed-Bold, &apos;Roboto Condensed&apos;" font-size="102.03" font-weight="700"><tspan x="0" y="0">O</tspan></text><text transform="translate(709.31 994.67) rotate(-25.3)" fill="#010101" font-family="RobotoCondensed-Bold, &apos;Roboto Condensed&apos;" font-size="102.03" font-weight="700"><tspan x="0" y="0">L</tspan></text><text transform="translate(744.42 978.69) rotate(-29.98)" fill="#010101" font-family="RobotoCondensed-Bold, &apos;Roboto Condensed&apos;" font-size="102.03" font-weight="700"><tspan x="0" y="0">Y</tspan></text><text transform="translate(798.07 948.11) rotate(-38.08)" fill="#010101" font-family="RobotoCondensed-Bold, &apos;Roboto Condensed&apos;" font-size="102.03" font-weight="700"><tspan x="0" y="0">M</tspan></text><text transform="translate(863.27 895.55) rotate(-46.31)" fill="#010101" font-family="RobotoCondensed-Bold, &apos;Roboto Condensed&apos;" font-size="102.03" font-weight="700"><tspan x="0" y="0">P</tspan></text><text transform="translate(905.5 850.07) rotate(-51.52)" fill="#010101" font-family="RobotoCondensed-Bold, &apos;Roboto Condensed&apos;" font-size="102.03" font-weight="700"><tspan x="0" y="0">I</tspan></text><text transform="translate(926.34 824.75) rotate(-57.02)" fill="#010101" font-family="RobotoCondensed-Bold, &apos;Roboto Condensed&apos;" font-size="102.03" font-weight="700"><tspan x="0" y="0">A</tspan></text><text transform="translate(962.2 768.65) rotate(-64.28)" fill="#010101" font-family="RobotoCondensed-Bold, &apos;Roboto Condensed&apos;" font-size="102.03" font-weight="700"><tspan x="0" y="0">D</tspan></text></svg>